ffmpeg started on 2025-04-30 at 17:30:19
Report written to "D:\Convert\FFMetrics\reports\psnr_report-6.txt"
Log level: 32
Command line:
ffmpeg -hide_banner -nostdin -i "G:\\\xc0\xed\xe8\xec\xe5\\\xce\xed\xe3\xee\xe8\xed\xe3\xe8\\!_37_\xc7\xe8\xec\xe0_2025\\JamClub\\\xcf\xee\xe4\xed\xff\xf2\xe8\xe5 \xf3\xf0\xee\xe2\xed\xff \xe2 \xee\xe4\xe8\xed\xee\xf7\xea\xf3\\\xd2\xc2-2\\JamClub_Ore_dake_Level_Up_na_Ken_Season_2_05_1080p_HEVC.mkv" -i "G:\\\xc0\xed\xe8\xec\xe5\\\xce\xed\xe3\xee\xe8\xed\xe3\xe8\\!_37_\xc7\xe8\xec\xe0_2025\\JamClub\\\xcf\xee\xe4\xed\xff\xf2\xe8\xe5 \xf3\xf0\xee\xe2\xed\xff \xe2 \xee\xe4\xe8\xed\xee\xf7\xea\xf3\\\xd2\xc2-2\\JamClub_Ore_dake_Level_Up_na_Ken_Season_2_05_1080p.mp4" -lavfi "[0:v]settb=AVTB,setpts=PTS-STARTPTS,format=pix_fmts=yuv420p10,fps=24000/1001,scale=1920:1080:flags=bicubic[main];[1:v]settb=AVTB,setpts=PTS-STARTPTS,format=pix_fmts=yuv420p,fps=24000/1001,scale=1920:1080:flags=bicubic[ref];[main][ref]psnr=eof_action=endall:stats_file='D\\:/Convert/FFMetrics/logs/psnr_logfile-6.txt'" -f null -
Input #0, matroska,webm, from 'G:\Аниме\Онгоинги\!_37_Зима_2025\JamClub\Поднятие уровня в одиночку\ТВ-2\JamClub_Ore_dake_Level_Up_na_Ken_Season_2_05_1080p_HEVC.mkv':
  Metadata:
    COMPATIBLE_BRANDS: isomiso2avc1mp41
    MAJOR_BRAND     : isom
    MINOR_VERSION   : 512
    ENCODER         : Lavf61.7.100
  Duration: 00:24:03.91, start: -0.001000, bitrate: 1489 kb/s
  Stream #0:0: Video: hevc (Main 10), yuv420p10le(tv, bt709, progressive), 1920x1080 [SAR 1:1 DAR 16:9], 23.98 fps, 23.98 tbr, 1k tbn (default)
      Metadata:
        HANDLER_NAME    : VideoHandler
        VENDOR_ID       : [0][0][0][0]
        ENCODER         : Lavc61.19.100 libx265
        BPS             : 1292192
        DURATION        : 00:24:02.148708333
        NUMBER_OF_FRAMES: 34577
        NUMBER_OF_BYTES : 232941526
        _STATISTICS_WRITING_APP: mkvpropedit v66.0.0 ('Josie') 64-bit
        _STATISTICS_WRITING_DATE_UTC: 2025-04-30 08:13:55
        _STATISTICS_TAGS: BPS DURATION NUMBER_OF_FRAMES NUMBER_OF_BYTES
  Stream #0:1(eng): Audio: aac (LC), 48000 Hz, stereo, fltp (default)
      Metadata:
        HANDLER_NAME    : SoundHandler
        VENDOR_ID       : [0][0][0][0]
        ENCODER         : Lavc61.19.100 aac
        BPS             : 194475
        DURATION        : 00:24:03.864000000
        NUMBER_OF_FRAMES: 67682
        NUMBER_OF_BYTES : 35099502
        _STATISTICS_WRITING_APP: mkvpropedit v66.0.0 ('Josie') 64-bit
        _STATISTICS_WRITING_DATE_UTC: 2025-04-30 08:13:55
        _STATISTICS_TAGS: BPS DURATION NUMBER_OF_FRAMES NUMBER_OF_BYTES
Input #1, mov,mp4,m4a,3gp,3g2,mj2, from 'G:\Аниме\Онгоинги\!_37_Зима_2025\JamClub\Поднятие уровня в одиночку\ТВ-2\JamClub_Ore_dake_Level_Up_na_Ken_Season_2_05_1080p.mp4':
  Metadata:
    major_brand     : isom
    minor_version   : 512
    compatible_brands: isomiso2avc1mp41
    encoder         : Lavf60.16.100
  Duration: 00:24:03.88, start: 0.000000, bitrate: 4944 kb/s
  Stream #1:0[0x1](und): Video: h264 (High) (avc1 / 0x31637661), yuv420p(progressive), 1920x1080 [SAR 1:1 DAR 16:9], 4752 kb/s, 23.98 fps, 23.98 tbr, 90k tbn (default)
      Metadata:
        handler_name    : VideoHandler
        vendor_id       : [0][0][0][0]
  Stream #1:1[0x2](eng): Audio: aac (LC) (mp4a / 0x6134706D), 48000 Hz, stereo, fltp, 191 kb/s (default)
      Metadata:
        handler_name    : SoundHandler
        vendor_id       : [0][0][0][0]
Stream mapping:
  Stream #0:0 (hevc) -> settb:default
  Stream #1:0 (h264) -> settb:default
  psnr:default -> Stream #0:0 (wrapped_avframe)
  Stream #0:1 -> #0:1 (aac (native) -> pcm_s16le (native))
Output #0, null, to 'pipe:':
  Metadata:
    COMPATIBLE_BRANDS: isomiso2avc1mp41
    MAJOR_BRAND     : isom
    MINOR_VERSION   : 512
    encoder         : Lavf61.7.100
  Stream #0:0: Video: wrapped_avframe, yuv420p10le(tv, bt709, progressive), 1920x1080 [SAR 1:1 DAR 16:9], q=2-31, 200 kb/s, 23.98 fps, 23.98 tbn
      Metadata:
        encoder         : Lavc61.19.100 wrapped_avframe
  Stream #0:1(eng): Audio: pcm_s16le, 48000 Hz, stereo, s16, 1536 kb/s (default)
      Metadata:
        HANDLER_NAME    : SoundHandler
        VENDOR_ID       : [0][0][0][0]
        _STATISTICS_TAGS: BPS DURATION NUMBER_OF_FRAMES NUMBER_OF_BYTES
        BPS             : 194475
        DURATION        : 00:24:03.864000000
        NUMBER_OF_FRAMES: 67682
        NUMBER_OF_BYTES : 35099502
        _STATISTICS_WRITING_APP: mkvpropedit v66.0.0 ('Josie') 64-bit
        _STATISTICS_WRITING_DATE_UTC: 2025-04-30 08:13:55
        encoder         : Lavc61.19.100 pcm_s16le
frame=  113 fps=0.0 q=-0.0 size=N/A time=00:00:04.71 bitrate=N/A speed=9.05x    frame=  274 fps=267 q=-0.0 size=N/A time=00:00:11.42 bitrate=N/A speed=11.1x    frame=  473 fps=304 q=-0.0 size=N/A time=00:00:19.72 bitrate=N/A speed=12.7x    frame=  668 fps=323 q=-0.0 size=N/A time=00:00:27.86 bitrate=N/A speed=13.5x    frame=  869 fps=336 q=-0.0 size=N/A time=00:00:36.24 bitrate=N/A speed=  14x    frame= 1071 fps=346 q=-0.0 size=N/A time=00:00:44.66 bitrate=N/A speed=14.4x    frame= 1256 fps=348 q=-0.0 size=N/A time=00:00:52.38 bitrate=N/A speed=14.5x    frame= 1420 fps=345 q=-0.0 size=N/A time=00:00:59.22 bitrate=N/A speed=14.4x    frame= 1589 fps=342 q=-0.0 size=N/A time=00:01:06.27 bitrate=N/A speed=14.3x    frame= 1768 fps=343 q=-0.0 size=N/A time=00:01:13.74 bitrate=N/A speed=14.3x    frame= 1960 fps=345 q=-0.0 size=N/A time=00:01:21.74 bitrate=N/A speed=14.4x    frame= 2134 fps=344 q=-0.0 size=N/A time=00:01:29.00 bitrate=N/A speed=14.3x    frame= 2291 fps=341 q=-0.0 size=N/A time=00:01:35.55 bitrate=N/A speed=14.2x    frame= 2452 fps=339 q=-0.0 size=N/A time=00:01:42.26 bitrate=N/A speed=14.1x    frame= 2636 fps=340 q=-0.0 size=N/A time=00:01:49.94 bitrate=N/A speed=14.2x    frame= 2881 fps=348 q=-0.0 size=N/A time=00:02:00.16 bitrate=N/A speed=14.5x    frame= 3122 fps=355 q=-0.0 size=N/A time=00:02:10.21 bitrate=N/A speed=14.8x    frame= 3379 fps=364 q=-0.0 size=N/A time=00:02:20.93 bitrate=N/A speed=15.2x    frame= 3623 fps=369 q=-0.0 size=N/A time=00:02:31.10 bitrate=N/A speed=15.4x    frame= 3865 fps=374 q=-0.0 size=N/A time=00:02:41.20 bitrate=N/A speed=15.6x    frame= 4084 fps=376 q=-0.0 size=N/A time=00:02:50.33 bitrate=N/A speed=15.7x    frame= 4306 fps=378 q=-0.0 size=N/A time=00:02:59.59 bitrate=N/A speed=15.8x    frame= 4541 fps=382 q=-0.0 size=N/A time=00:03:09.39 bitrate=N/A speed=15.9x    frame= 4800 fps=387 q=-0.0 size=N/A time=00:03:20.20 bitrate=N/A speed=16.1x    frame= 5066 fps=392 q=-0.0 size=N/A time=00:03:31.29 bitrate=N/A speed=16.3x    frame= 5304 fps=395 q=-0.0 size=N/A time=00:03:41.22 bitrate=N/A speed=16.5x    frame= 5517 fps=395 q=-0.0 size=N/A time=00:03:50.10 bitrate=N/A speed=16.5x    frame= 5727 fps=396 q=-0.0 size=N/A time=00:03:58.86 bitrate=N/A speed=16.5x    frame= 5962 fps=398 q=-0.0 size=N/A time=00:04:08.66 bitrate=N/A speed=16.6x    frame= 6201 fps=400 q=-0.0 size=N/A time=00:04:18.63 bitrate=N/A speed=16.7x    frame= 6433 fps=401 q=-0.0 size=N/A time=00:04:28.30 bitrate=N/A speed=16.7x    frame= 6688 fps=404 q=-0.0 size=N/A time=00:04:38.94 bitrate=N/A speed=16.9x    frame= 6955 fps=408 q=-0.0 size=N/A time=00:04:50.08 bitrate=N/A speed=  17x    frame= 7205 fps=410 q=-0.0 size=N/A time=00:05:00.50 bitrate=N/A speed=17.1x    frame= 7468 fps=413 q=-0.0 size=N/A time=00:05:11.47 bitrate=N/A speed=17.2x    frame= 7731 fps=416 q=-0.0 size=N/A time=00:05:22.44 bitrate=N/A speed=17.3x    frame= 7969 fps=417 q=-0.0 size=N/A time=00:05:32.37 bitrate=N/A speed=17.4x    frame= 8227 fps=419 q=-0.0 size=N/A time=00:05:43.13 bitrate=N/A speed=17.5x    frame= 8499 fps=422 q=-0.0 size=N/A time=00:05:54.47 bitrate=N/A speed=17.6x    frame= 8779 fps=425 q=-0.0 size=N/A time=00:06:06.15 bitrate=N/A speed=17.7x    frame= 9037 fps=427 q=-0.0 size=N/A time=00:06:16.91 bitrate=N/A speed=17.8x    frame= 9315 fps=429 q=-0.0 size=N/A time=00:06:28.51 bitrate=N/A speed=17.9x    frame= 9587 fps=432 q=-0.0 size=N/A time=00:06:39.85 bitrate=N/A speed=  18x    frame= 9844 fps=433 q=-0.0 size=N/A time=00:06:50.57 bitrate=N/A speed=18.1x    frame=10098 fps=435 q=-0.0 size=N/A time=00:07:01.17 bitrate=N/A speed=18.1x    frame=10336 fps=435 q=-0.0 size=N/A time=00:07:11.09 bitrate=N/A speed=18.1x    frame=10536 fps=434 q=-0.0 size=N/A time=00:07:19.43 bitrate=N/A speed=18.1x    frame=10764 fps=434 q=-0.0 size=N/A time=00:07:28.94 bitrate=N/A speed=18.1x    frame=10975 fps=434 q=-0.0 size=N/A time=00:07:37.74 bitrate=N/A speed=18.1x    frame=11206 fps=434 q=-0.0 size=N/A time=00:07:47.38 bitrate=N/A speed=18.1x    frame=11433 fps=434 q=-0.0 size=N/A time=00:07:56.85 bitrate=N/A speed=18.1x    frame=11680 fps=435 q=-0.0 size=N/A time=00:08:07.15 bitrate=N/A speed=18.1x    frame=11921 fps=436 q=-0.0 size=N/A time=00:08:17.20 bitrate=N/A speed=18.2x    frame=12151 fps=436 q=-0.0 size=N/A time=00:08:26.79 bitrate=N/A speed=18.2x    frame=12407 fps=437 q=-0.0 size=N/A time=00:08:37.47 bitrate=N/A speed=18.2x    frame=12672 fps=438 q=-0.0 size=N/A time=00:08:48.52 bitrate=N/A speed=18.3x    frame=12947 fps=440 q=-0.0 size=N/A time=00:08:59.99 bitrate=N/A speed=18.4x    frame=13205 fps=441 q=-0.0 size=N/A time=00:09:10.75 bitrate=N/A speed=18.4x    frame=13435 fps=441 q=-0.0 size=N/A time=00:09:20.35 bitrate=N/A speed=18.4x    frame=13687 fps=442 q=-0.0 size=N/A time=00:09:30.86 bitrate=N/A speed=18.4x    frame=13915 fps=442 q=-0.0 size=N/A time=00:09:40.37 bitrate=N/A speed=18.4x    frame=14171 fps=443 q=-0.0 size=N/A time=00:09:51.04 bitrate=N/A speed=18.5x    frame=14377 fps=442 q=-0.0 size=N/A time=00:09:59.64 bitrate=N/A speed=18.4x    frame=14615 fps=442 q=-0.0 size=N/A time=00:10:09.56 bitrate=N/A speed=18.5x    frame=14857 fps=443 q=-0.0 size=N/A time=00:10:19.66 bitrate=N/A speed=18.5x    frame=15105 fps=443 q=-0.0 size=N/A time=00:10:30.00 bitrate=N/A speed=18.5x    frame=15338 fps=444 q=-0.0 size=N/A time=00:10:39.72 bitrate=N/A speed=18.5x    frame=15545 fps=443 q=-0.0 size=N/A time=00:10:48.35 bitrate=N/A speed=18.5x    frame=15808 fps=444 q=-0.0 size=N/A time=00:10:59.32 bitrate=N/A speed=18.5x    frame=16022 fps=444 q=-0.0 size=N/A time=00:11:08.25 bitrate=N/A speed=18.5x    frame=16254 fps=444 q=-0.0 size=N/A time=00:11:17.92 bitrate=N/A speed=18.5x    frame=16446 fps=443 q=-0.0 size=N/A time=00:11:25.93 bitrate=N/A speed=18.5x    frame=16700 fps=443 q=-0.0 size=N/A time=00:11:36.52 bitrate=N/A speed=18.5x    frame=16958 fps=444 q=-0.0 size=N/A time=00:11:47.28 bitrate=N/A speed=18.5x    frame=17229 fps=445 q=-0.0 size=N/A time=00:11:58.59 bitrate=N/A speed=18.6x    frame=17442 fps=445 q=-0.0 size=N/A time=00:12:07.47 bitrate=N/A speed=18.5x    frame=17642 fps=444 q=-0.0 size=N/A time=00:12:15.81 bitrate=N/A speed=18.5x    frame=17856 fps=444 q=-0.0 size=N/A time=00:12:24.74 bitrate=N/A speed=18.5x    frame=18065 fps=443 q=-0.0 size=N/A time=00:12:33.46 bitrate=N/A speed=18.5x    frame=18252 fps=442 q=-0.0 size=N/A time=00:12:41.26 bitrate=N/A speed=18.4x    frame=18457 fps=442 q=-0.0 size=N/A time=00:12:49.81 bitrate=N/A speed=18.4x    frame=18673 fps=441 q=-0.0 size=N/A time=00:12:58.81 bitrate=N/A speed=18.4x    frame=18903 fps=441 q=-0.0 size=N/A time=00:13:08.41 bitrate=N/A speed=18.4x    frame=19133 fps=441 q=-0.0 size=N/A time=00:13:18.00 bitrate=N/A speed=18.4x    frame=19349 fps=441 q=-0.0 size=N/A time=00:13:27.01 bitrate=N/A speed=18.4x    frame=19555 fps=441 q=-0.0 size=N/A time=00:13:35.60 bitrate=N/A speed=18.4x    frame=19775 fps=440 q=-0.0 size=N/A time=00:13:44.78 bitrate=N/A speed=18.4x    frame=19995 fps=440 q=-0.0 size=N/A time=00:13:53.95 bitrate=N/A speed=18.4x    frame=20199 fps=440 q=-0.0 size=N/A time=00:14:02.46 bitrate=N/A speed=18.3x    frame=20423 fps=440 q=-0.0 size=N/A time=00:14:11.80 bitrate=N/A speed=18.3x    frame=20631 fps=439 q=-0.0 size=N/A time=00:14:20.48 bitrate=N/A speed=18.3x    frame=20869 fps=440 q=-0.0 size=N/A time=00:14:30.41 bitrate=N/A speed=18.3x    frame=21125 fps=440 q=-0.0 size=N/A time=00:14:41.08 bitrate=N/A speed=18.4x    frame=21378 fps=441 q=-0.0 size=N/A time=00:14:51.64 bitrate=N/A speed=18.4x    frame=21617 fps=441 q=-0.0 size=N/A time=00:15:01.60 bitrate=N/A speed=18.4x    frame=21831 fps=441 q=-0.0 size=N/A time=00:15:10.53 bitrate=N/A speed=18.4x    frame=22047 fps=440 q=-0.0 size=N/A time=00:15:19.54 bitrate=N/A speed=18.4x    frame=22239 fps=440 q=-0.0 size=N/A time=00:15:27.55 bitrate=N/A speed=18.3x    frame=22468 fps=440 q=-0.0 size=N/A time=00:15:37.10 bitrate=N/A speed=18.3x    frame=22660 fps=439 q=-0.0 size=N/A time=00:15:45.11 bitrate=N/A speed=18.3x    frame=22869 fps=439 q=-0.0 size=N/A time=00:15:53.82 bitrate=N/A speed=18.3x    frame=23050 fps=438 q=-0.0 size=N/A time=00:16:01.37 bitrate=N/A speed=18.3x    frame=23267 fps=438 q=-0.0 size=N/A time=00:16:10.42 bitrate=N/A speed=18.3x    frame=23493 fps=438 q=-0.0 size=N/A time=00:16:19.85 bitrate=N/A speed=18.3x    frame=23733 fps=438 q=-0.0 size=N/A time=00:16:29.86 bitrate=N/A speed=18.3x    frame=24011 fps=439 q=-0.0 size=N/A time=00:16:41.45 bitrate=N/A speed=18.3x    frame=24273 fps=440 q=-0.0 size=N/A time=00:16:52.38 bitrate=N/A speed=18.3x    frame=24541 fps=440 q=-0.0 size=N/A time=00:17:03.56 bitrate=N/A speed=18.4x    frame=24804 fps=441 q=-0.0 size=N/A time=00:17:14.53 bitrate=N/A speed=18.4x    frame=25052 fps=441 q=-0.0 size=N/A time=00:17:24.87 bitrate=N/A speed=18.4x    frame=25307 fps=442 q=-0.0 size=N/A time=00:17:35.55 bitrate=N/A speed=18.4x    frame=25555 fps=442 q=-0.0 size=N/A time=00:17:45.85 bitrate=N/A speed=18.4x    frame=25811 fps=443 q=-0.0 size=N/A time=00:17:56.53 bitrate=N/A speed=18.5x    frame=26036 fps=443 q=-0.0 size=N/A time=00:18:05.91 bitrate=N/A speed=18.5x    frame=26250 fps=442 q=-0.0 size=N/A time=00:18:14.84 bitrate=N/A speed=18.4x    frame=26486 fps=442 q=-0.0 size=N/A time=00:18:24.68 bitrate=N/A speed=18.5x    frame=26719 fps=443 q=-0.0 size=N/A time=00:18:34.40 bitrate=N/A speed=18.5x    frame=26925 fps=442 q=-0.0 size=N/A time=00:18:42.99 bitrate=N/A speed=18.4x    frame=27123 fps=442 q=-0.0 size=N/A time=00:18:51.25 bitrate=N/A speed=18.4x    frame=27367 fps=442 q=-0.0 size=N/A time=00:19:01.43 bitrate=N/A speed=18.4x    frame=27594 fps=442 q=-0.0 size=N/A time=00:19:10.89 bitrate=N/A speed=18.4x    frame=27826 fps=442 q=-0.0 size=N/A time=00:19:20.57 bitrate=N/A speed=18.4x    frame=28060 fps=442 q=-0.0 size=N/A time=00:19:30.33 bitrate=N/A speed=18.4x    frame=28285 fps=442 q=-0.0 size=N/A time=00:19:39.72 bitrate=N/A speed=18.4x    frame=28522 fps=442 q=-0.0 size=N/A time=00:19:49.60 bitrate=N/A speed=18.4x    frame=28762 fps=442 q=-0.0 size=N/A time=00:19:59.61 bitrate=N/A speed=18.4x    frame=29002 fps=443 q=-0.0 size=N/A time=00:20:09.62 bitrate=N/A speed=18.5x    frame=29262 fps=443 q=-0.0 size=N/A time=00:20:20.46 bitrate=N/A speed=18.5x    frame=29475 fps=443 q=-0.0 size=N/A time=00:20:29.35 bitrate=N/A speed=18.5x    frame=29754 fps=444 q=-0.0 size=N/A time=00:20:40.98 bitrate=N/A speed=18.5x    frame=30011 fps=444 q=-0.0 size=N/A time=00:20:51.70 bitrate=N/A speed=18.5x    frame=30241 fps=444 q=-0.0 size=N/A time=00:21:01.30 bitrate=N/A speed=18.5x    frame=30489 fps=444 q=-0.0 size=N/A time=00:21:11.64 bitrate=N/A speed=18.5x    frame=30733 fps=444 q=-0.0 size=N/A time=00:21:21.82 bitrate=N/A speed=18.5x    frame=30978 fps=445 q=-0.0 size=N/A time=00:21:32.04 bitrate=N/A speed=18.6x    frame=31246 fps=445 q=-0.0 size=N/A time=00:21:43.21 bitrate=N/A speed=18.6x    frame=31489 fps=446 q=-0.0 size=N/A time=00:21:53.35 bitrate=N/A speed=18.6x    frame=31700 fps=445 q=-0.0 size=N/A time=00:22:02.15 bitrate=N/A speed=18.6x    frame=31938 fps=445 q=-0.0 size=N/A time=00:22:12.08 bitrate=N/A speed=18.6x    frame=32150 fps=445 q=-0.0 size=N/A time=00:22:20.92 bitrate=N/A speed=18.6x    frame=32371 fps=445 q=-0.0 size=N/A time=00:22:30.14 bitrate=N/A speed=18.6x    frame=32552 fps=444 q=-0.0 size=N/A time=00:22:37.68 bitrate=N/A speed=18.5x    frame=32764 fps=444 q=-0.0 size=N/A time=00:22:46.53 bitrate=N/A speed=18.5x    frame=32971 fps=444 q=-0.0 size=N/A time=00:22:55.16 bitrate=N/A speed=18.5x    frame=33188 fps=444 q=-0.0 size=N/A time=00:23:04.21 bitrate=N/A speed=18.5x    frame=33397 fps=443 q=-0.0 size=N/A time=00:23:12.93 bitrate=N/A speed=18.5x    frame=33566 fps=443 q=-0.0 size=N/A time=00:23:19.98 bitrate=N/A speed=18.5x    frame=33732 fps=442 q=-0.0 size=N/A time=00:23:26.90 bitrate=N/A speed=18.4x    frame=33918 fps=441 q=-0.0 size=N/A time=00:23:34.66 bitrate=N/A speed=18.4x    frame=34116 fps=441 q=-0.0 size=N/A time=00:23:42.92 bitrate=N/A speed=18.4x    frame=34335 fps=441 q=-0.0 size=N/A time=00:23:52.05 bitrate=N/A speed=18.4x    frame=34520 fps=440 q=-0.0 size=N/A time=00:23:59.77 bitrate=N/A speed=18.4x    [Parsed_psnr_10 @ 000001eb65ef28c0] PSNR y:48.357561 u:49.906521 v:49.931101 average:48.818299 min:37.292728 max:inf
[out#0/null @ 000001eb5a32fe00] video:14857KiB audio:270728KiB subtitle:0KiB other streams:0KiB global headers:0KiB muxing overhead: unknown
frame=34577 fps=440 q=-0.0 Lsize=N/A time=00:24:02.14 bitrate=N/A speed=18.3x    
